<?xml version="1.0" standalone="no"?>
<!DOCTYPE svg PUBLIC "-//W3C//DTD SVG 20010904//EN"
 "http://www.w3.org/TR/2001/REC-SVG-20010904/DTD/svg10.dtd">
<svg version="1.0" xmlns="http://www.w3.org/2000/svg"
 width="512.000000pt" height="512.000000pt" viewBox="0 0 512.000000 512.000000"
 preserveAspectRatio="xMidYMid meet">
<metadata>
Created by potrace 1.14, written by Peter Selinger 2001-2017
</metadata>
<g transform="translate(0.000000,512.000000) scale(0.100000,-0.100000)"
fill="#000000" stroke="none">
<path d="M2460 4823 c0 -4 -30 -9 -66 -9 -36 -1 -70 -6 -76 -12 -7 -7 -19 -7
-34 -2 -16 7 -24 6 -24 -1 0 -6 -9 -9 -20 -6 -11 3 -20 1 -20 -3 0 -5 -19 -11
-42 -15 -49 -9 -154 -49 -247 -95 -73 -37 -174 -100 -179 -112 -2 -4 -10 -8
-17 -8 -7 0 -15 -7 -19 -15 -3 -8 -11 -15 -18 -15 -7 0 -22 -11 -32 -25 -10
-14 -25 -25 -32 -25 -8 0 -14 -6 -15 -12 0 -7 -21 -30 -45 -50 -25 -21 -44
-38 -41 -38 3 0 -349 -352 -398 -397 -7 -7 -22 -23 -32 -35 -10 -13 -33 -35
-51 -50 -19 -16 -32 -28 -30 -28 6 0 -165 -170 -171 -170 -3 -1 -19 -19 -36
-40 -16 -21 -33 -39 -37 -40 -9 0 -68 -60 -60 -60 4 -1 -4 -7 -18 -15 -14 -8
-21 -14 -17 -15 4 0 -9 -15 -30 -32 -21 -18 -47 -44 -59 -57 l-21 -24 -53 26
c-71 35 -129 36 -187 1 -36 -21 -175 -152 -219 -206 -16 -20 -35 -79 -28 -89
3 -5 1 -9 -4 -9 -5 0 -5 -19 0 -48 8 -39 23 -63 74 -121 35 -39 64 -69 64 -65
0 3 13 -8 30 -26 16 -18 30 -36 30 -41 0 -5 6 -8 13 -7 6 2 11 -3 9 -9 -1 -7
2 -13 8 -13 5 0 101 -91 213 -202 221 -219 242 -238 268 -238 10 0 20 -4 23
-9 3 -4 23 -7 45 -5 63 5 61 4 106 42 8 7 15 11 15 8 0 -14 183 184 196 213
18 38 26 120 14 136 -5 6 -9 13 -10 17 -9 37 -14 47 -26 52 -50 19 21 94 146
153 65 31 194 51 206 32 3 -5 14 -9 25 -9 14 0 473 -452 1391 -1370 1247
-1246 1423 -1416 1472 -1424 6 -1 16 -4 21 -7 34 -20 210 -35 220 -19 3 5 14
7 25 5 11 -2 20 0 20 6 0 5 8 9 18 9 9 0 34 11 55 25 20 14 37 23 37 20 0 -5
53 48 81 82 20 25 55 100 67 143 7 28 9 165 2 165 -1 0 -3 11 -5 25 -5 36 -50
131 -75 158 -11 12 -19 22 -16 22 2 0 -608 612 -1356 1360 l-1360 1359 -14 68
c-14 62 -19 232 -9 293 23 144 90 268 201 375 72 70 108 100 147 124 20 12 37
27 37 32 0 5 3 8 8 7 4 -1 34 11 67 27 33 16 65 30 70 31 6 0 12 2 15 3 14 7
49 13 78 14 17 1 32 4 32 7 0 6 8 7 185 10 77 2 149 8 160 14 21 11 27 13 47
15 6 0 8 4 5 7 -3 4 -2 15 4 25 7 14 6 19 -2 19 -7 0 -9 3 -6 6 11 11 -24 59
-52 72 -26 11 -190 68 -201 70 -37 4 -88 17 -97 25 -9 6 -13 6 -13 -2 0 -7 -8
-8 -27 0 -15 5 -75 12 -133 15 -58 3 -111 7 -117 9 -7 3 -13 0 -13 -6 0 -6 -7
-6 -20 1 -11 6 -20 7 -20 3z"/>
</g>
</svg>
